<svg width="456" height="788" viewBox="0 0 456 788" fill="none" xmlns="http://www.w3.org/2000/svg">
<g clip-path="url(#clip0)">
<path d="M114 284C166.467 284 209 241.467 209 189C209 136.533 166.467 94 114 94C61.533 94 19 136.533 19 189C19 241.467 61.533 284 114 284Z" fill="#FF6584"/>
<path d="M344.944 579.477C345.91 579.477 346.692 578.694 346.692 577.728C346.692 576.763 345.91 575.98 344.944 575.98C343.978 575.98 343.195 576.763 343.195 577.728C343.195 578.694 343.978 579.477 344.944 579.477Z" fill="white"/>
<path d="M308.517 571.173C385.14 557.358 424.404 419.42 396.216 263.079C368.028 106.739 283.063 -8.80089 206.44 5.01392C129.818 18.8287 90.5541 156.767 118.742 313.107C146.93 469.448 231.895 584.988 308.517 571.173Z" fill="#E6E6E6"/>
<path d="M234.233 234.244C246.662 267.962 257.722 302.14 267.414 336.776C277.087 371.38 285.361 406.334 292.237 441.637C299.112 476.928 304.563 512.455 308.589 548.219C312.596 583.921 315.17 619.744 316.312 655.689C317.447 691.595 317.134 727.509 315.372 763.428C315.155 767.829 314.916 772.229 314.655 776.627C314.39 781.132 321.415 781.117 321.68 776.627C323.803 740.594 324.469 704.516 323.678 668.393C322.883 632.478 320.647 596.632 316.972 560.856C313.287 524.976 308.183 489.278 301.659 453.761C295.131 418.259 287.183 383.056 277.815 348.153C268.453 313.289 257.689 278.84 245.522 244.807C244.037 240.658 242.532 236.516 241.006 232.381C239.459 228.183 232.667 229.997 234.233 234.244V234.244Z" fill="#3F3D56"/>
<path d="M282.53 367.28L313.755 298.601L322.556 279.244C323 278.438 323.116 277.495 322.881 276.607C322.646 275.719 322.078 274.954 321.292 274.468C320.483 274.007 319.524 273.881 318.622 274.115C317.72 274.349 316.947 274.926 316.47 275.72L285.245 344.399L276.444 363.756C276 364.562 275.884 365.505 276.119 366.393C276.354 367.281 276.922 368.046 277.708 368.532C278.517 368.993 279.476 369.119 280.378 368.885C281.28 368.651 282.053 368.074 282.53 367.28H282.53Z" fill="#3F3D56"/>
<path d="M289.436 414.126L218.442 387.597L198.432 380.12C197.534 379.88 196.577 380.003 195.769 380.46C194.96 380.918 194.364 381.674 194.11 382.566C193.882 383.461 194.011 384.408 194.468 385.211C194.926 386.014 195.677 386.61 196.564 386.874L267.558 413.403L287.568 420.88C288.466 421.12 289.423 420.997 290.231 420.539C291.04 420.082 291.636 419.326 291.89 418.434C292.118 417.539 291.989 416.591 291.532 415.789C291.074 414.986 290.324 414.39 289.436 414.126V414.126Z" fill="#3F3D56"/>
<path d="M234 790C234 790 319.426 760.75 399 790H234Z" fill="#E6E6E6"/>
</g>
<defs>
<clipPath id="clip0">
<rect width="479" height="807" fill="white"/>
</clipPath>
</defs>
</svg>
