<svg width="574" height="898" viewBox="0 0 574 898" fill="none" xmlns="http://www.w3.org/2000/svg">
<g clip-path="url(#clip0)">
<path d="M522.279 30.8623C522.965 32.4307 523.477 34.0701 523.805 35.7508C523.062 33.187 522.478 31.4468 522.279 30.8623Z" fill="#3F3D56"/>
<path d="M545.819 112.08C545.819 112.08 545.819 113.913 543.842 120.529L545.819 112.08Z" fill="#3F3D56"/>
<path d="M788.116 388.797C735.925 416.029 667.651 439.542 647.202 446.357C662.794 442.292 708.178 436.819 778.495 480.735C866.846 535.904 961.315 499.12 961.315 499.12C961.315 499.12 940.322 539.41 895.708 542.027C851.095 544.658 734.757 471.105 695.399 492.12C656.027 513.135 637.661 486.859 621.91 539.41C606.171 591.948 577.309 735.547 610.551 816.114L643.778 896.668H454.841C454.841 896.668 523.075 714.532 485.455 602.456C464.395 539.689 434.83 494.232 423.802 471.131C418.269 459.561 417.393 453.61 424.559 453.902C428.633 454.075 435.307 456.266 445.22 460.597C445.22 460.597 399.731 415.936 384.868 415.936C369.993 415.936 300.007 408.936 277.276 385.29C277.276 385.29 244.91 362.522 187.173 418.567C129.435 474.612 143.435 474.612 91.8281 470.228C41.0307 465.911 1.23411 441.242 0 440.472C1.47296 441.07 60.8029 464.808 97.0697 452.72C133.814 440.459 165.304 394.045 197.669 378.29C230.035 362.522 249.276 341.507 293.014 364.275L264.191 296.248L256.296 277.611L256.283 277.585C256.283 277.585 246.649 149.74 228.283 140.986C209.917 132.219 221.29 109.463 187.173 105.08C187.173 105.08 229.159 99.8192 237.028 128.725C244.91 157.617 299.145 313.491 299.145 313.491C299.145 313.491 332.373 380.03 369.117 364.275C405.862 348.507 355.117 260.076 355.117 260.076L292.138 231.171C292.138 231.171 339.379 229.417 368.241 256.569C397.103 283.708 398.855 371.276 398.855 371.276C398.855 371.276 471.455 381.784 488.958 421.197C488.958 421.197 500.33 386.167 478.461 365.152C472.994 359.892 467.248 350.752 461.715 340.006C440.739 298.758 433.158 251.981 440.032 206.21C443.283 183.813 445.287 161.908 441.717 156.741C433.848 145.356 400.607 75.3104 397.979 56.9122C395.365 38.5272 400.607 0.00387573 400.607 0.00387573C400.607 0.00387573 401.482 47.2813 411.979 62.1726C422.476 77.0639 452.213 150.617 452.213 150.617C452.213 150.617 452.213 243.432 476.71 288.969C501.206 334.506 548.434 385.29 545.82 418.567V437.828C545.82 437.828 598.302 387.921 594.799 371.276C591.296 354.645 586.93 315.231 553.689 291.599C520.447 267.954 498.579 230.294 522.199 176.002C535.482 145.463 541.295 129.057 543.842 120.542L530.068 179.509C530.068 179.509 521.323 239.925 545.82 260.94C545.886 260.993 545.939 261.046 546.005 261.099C570.462 282.141 602.668 320.492 602.668 320.492L602.575 318.805L595.675 194.401L597.188 197.722L608.095 221.659L618.42 244.308C618.42 244.308 667.399 181.263 725.136 160.248C782.861 139.233 818.729 65.6795 818.729 65.6795L867.722 27.1429L827.474 75.3104C827.474 75.3104 815.226 132.219 746.13 172.509C677.02 212.786 632.419 272.324 629.792 309.107C627.164 345.89 624.537 378.29 624.537 378.29C624.537 378.29 753.999 373.906 782.861 316.985C811.736 260.076 835.357 257.446 835.357 257.446L818.729 306.477L800.364 348.507C800.364 348.507 875.591 350.261 914.95 394.921C954.322 439.582 1052.28 452.72 1052.28 452.72L997.184 467.598C997.184 467.598 944.688 450.089 894.833 417.69C844.977 385.29 850.219 356.398 788.116 388.797Z" fill="#3F3D56"/>
<path opacity="0.1" d="M614.611 339.089C614.611 339.089 582.246 300.552 557.763 279.537C552.388 274.941 548.62 268.432 546.005 261.099C545.793 260.515 545.594 259.917 545.395 259.319C545.966 259.877 546.536 260.422 547.147 260.94C568.578 279.338 596.06 311.166 602.575 318.804C603.491 319.894 603.995 320.491 603.995 320.491L597.188 197.722L608.096 221.659L614.611 339.089Z" fill="black"/>
<path opacity="0.1" d="M557.757 437.161V456.426C557.757 456.426 610.241 406.513 606.742 389.876C604.066 377.152 600.862 351.117 584.643 328.996C591.954 345.713 594.179 362.021 596.126 371.278C598.635 383.209 572.358 412.248 557.288 427.726C557.817 430.841 557.974 434.008 557.757 437.161Z" fill="black"/>
<path opacity="0.1" d="M487.354 304.959C487.77 305.846 488.199 306.719 488.653 307.564C502.067 332.501 522.289 359.01 537.42 383.359C525.191 359.246 503.91 331.671 487.354 304.959Z" fill="black"/>
<path opacity="0.1" d="M530 267.679C522.946 250.377 521.784 229.79 529.887 205.665C529.786 196.922 530.29 188.183 531.396 179.51L545.169 120.527C542.63 129.033 536.82 145.442 523.523 176.007C506.69 214.701 512.972 244.937 530 267.679Z" fill="black"/>
<path opacity="0.1" d="M381.06 382.87C417.799 367.109 367.065 278.667 367.065 278.667L365.677 278.031C378.325 304.745 396.669 353.022 370.444 364.273C345.905 374.801 322.93 348.608 310.375 330.051C310.831 331.363 311.081 332.082 311.081 332.082C311.081 332.082 344.321 398.632 381.06 382.87Z" fill="black"/>
<path opacity="0.1" d="M500.899 439.788C500.899 439.788 511.969 405.629 491.173 384.538C496.272 402.708 490.283 421.191 490.283 421.191C476.75 390.708 430.247 377.521 409.878 373.111C410.668 383.259 410.801 389.876 410.801 389.876C410.801 389.876 483.404 400.384 500.899 439.788Z" fill="black"/>
<path opacity="0.1" d="M545.169 120.527C547.141 113.925 547.141 112.084 547.141 112.084L545.169 120.527Z" fill="black"/>
<path opacity="0.1" d="M108.487 471.479C108.663 471.422 108.842 471.37 109.017 471.312C145.756 459.053 177.247 412.643 209.612 396.881C241.977 381.119 261.221 360.103 304.958 382.87C304.958 382.87 297.307 351.517 282.479 330.919C287.39 341.672 291.359 352.832 294.342 364.273C250.605 341.506 231.361 362.522 198.996 378.284C166.631 394.045 135.14 440.455 98.4014 452.714C61.6625 464.974 1.30579 440.455 1.30579 440.455C1.30579 440.455 41.5436 465.849 93.1531 470.227C99.0569 470.728 104.094 471.17 108.487 471.479Z" fill="black"/>
<path opacity="0.1" d="M268.225 296.182C268.225 296.182 266.792 296.208 264.191 296.248L256.296 277.611C257.158 277.598 257.609 277.584 257.609 277.584C257.609 277.584 251.532 196.951 239.828 159.371C239.974 159.437 240.093 159.517 240.226 159.583C258.592 168.337 268.225 296.182 268.225 296.182Z" fill="black"/>
<path opacity="0.1" d="M473.175 896.672C489.202 847.487 527.747 711.479 497.4 621.049C484.295 581.996 472.147 557.093 461.878 541.205C469.558 556.245 477.954 576.138 486.784 602.451C524.398 714.535 456.168 896.672 456.168 896.672H473.175Z" fill="black"/>
<path opacity="0.1" d="M457.163 479.194C446.608 474.548 435.312 471.818 423.802 471.131C418.269 459.561 417.393 453.61 424.559 453.902C426.549 454.26 428.553 454.686 430.543 455.177C444.61 466.867 457.163 479.194 457.163 479.194Z" fill="black"/>
<path opacity="0.1" d="M220.354 132.48C221.352 134.162 222.561 135.709 223.952 137.084C222.93 135.418 221.723 133.873 220.354 132.48Z" fill="black"/>
<path opacity="0.1" d="M380.186 275.165C381.538 276.445 382.804 277.812 383.978 279.258C380.146 270.037 375.414 262.063 369.57 256.567C340.703 229.422 293.468 231.173 293.468 231.173L352.706 258.353C362.857 262.144 372.186 267.851 380.186 275.165Z" fill="black"/>
<path opacity="0.1" d="M443.047 156.742C446.617 161.904 444.611 183.81 441.353 206.213C434.482 251.982 442.065 298.757 463.043 340.001C465.83 345.52 468.942 350.869 472.364 356.018C452.372 315.383 445.256 269.605 451.969 224.811C455.227 202.407 457.233 180.502 453.663 175.34C445.791 163.956 412.551 93.9039 409.927 75.5151C409.14 68.3811 408.956 61.1934 409.378 54.0285C402.584 34.7289 401.935 0 401.935 0C401.935 0 396.686 38.5289 399.31 56.9176C401.935 75.3062 435.175 145.359 443.047 156.742Z" fill="black"/>
<path opacity="0.1" d="M525.111 35.6862C524.76 33.9555 524.228 32.2667 523.523 30.648C523.523 30.648 524.195 32.5379 525.111 35.6862Z" fill="black"/>
<path opacity="0.1" d="M216.151 123.876C223.86 124.821 232.728 127.189 239.492 132.68C239.051 131.186 238.666 129.847 238.359 128.722C230.487 99.8249 188.499 105.079 188.499 105.079C207.474 107.514 212.375 115.638 216.151 123.876Z" fill="black"/>
<path d="M433.563 859.258C439.8 882.337 461.162 896.631 461.162 896.631C461.162 896.631 472.413 873.505 466.176 850.426C459.939 827.347 438.577 813.053 438.577 813.053C438.577 813.053 427.326 836.178 433.563 859.258Z" fill="#3F3D56"/>
<path d="M442.728 854.298C459.842 870.975 461.932 896.612 461.932 896.612C461.932 896.612 436.275 895.209 419.161 878.532C402.047 861.855 399.957 836.218 399.957 836.218C399.957 836.218 425.614 837.62 442.728 854.298Z" fill="#FD0157"/>
<path d="M386.005 228.545C384.517 252.408 366.451 270.699 366.451 270.699C366.451 270.699 350.797 250.301 352.285 226.438C353.772 202.576 371.838 184.285 371.838 184.285C371.838 184.285 387.492 204.683 386.005 228.545Z" fill="#FD0157"/>
<path d="M197.682 77.691C217.886 90.4421 225.255 115.084 225.255 115.084C225.255 115.084 199.868 119.052 179.664 106.301C159.46 93.5497 152.091 68.9082 152.091 68.9082C152.091 68.9082 177.479 64.94 197.682 77.691Z" fill="#FD0157"/>
<path d="M152.565 368.609C172.768 381.36 180.137 406.001 180.137 406.001C180.137 406.001 154.75 409.969 134.546 397.218C114.343 384.467 106.974 359.826 106.974 359.826C106.974 359.826 132.361 355.858 152.565 368.609Z" fill="#FD0157"/>
<path d="M563.296 120.221C557.203 143.339 535.93 157.765 535.93 157.765C535.93 157.765 524.535 134.711 530.628 111.593C536.721 88.4752 557.994 74.0484 557.994 74.0484C557.994 74.0484 569.388 97.1031 563.296 120.221Z" fill="#FD0157"/>
</g>
<defs>
<clipPath id="clip0">
<rect width="1135" height="898" fill="white"/>
</clipPath>
</defs>
</svg>
