<svg width="617" height="278" viewBox="0 0 617 278" fill="none" xmlns="http://www.w3.org/2000/svg">
<g clip-path="url(#clip0)">
<path d="M557.82 112.364H539.172V176.975H557.82V112.364Z" fill="#F2F2F2"/>
<path d="M570.135 164.821L524.78 110.813L433.738 111.646L378.51 165.488L379.626 166.206H379.227V278.198H570.014V166.206L570.135 164.821Z" fill="#F2F2F2"/>
<path d="M524.827 110.928L468.165 177.419V278.198H570.013V164.77L524.827 110.928Z" fill="#E6E6E6"/>
<path d="M529.848 222.466H509.048V240.868H529.848V222.466Z" fill="#3F3D56"/>
<path d="M529.848 190.615H509.048V208.725H529.848V190.615Z" fill="#3F3D56"/>
<path d="M529.848 222.466H509.048V240.868H529.848V222.466Z" fill="white"/>
<path d="M529.848 190.615H509.048V208.725H529.848V190.615Z" fill="white"/>
<path d="M437.411 217.583H416.611V235.985H437.411V217.583Z" fill="white"/>
<path d="M437.411 185.732H416.611V203.842H437.411V185.732Z" fill="white"/>
<path d="M410.659 112.364H392.011V176.975H410.659V112.364Z" fill="#F2F2F2"/>
<path d="M422.975 164.821L377.619 110.813L286.577 111.646L231.349 165.488L232.465 166.206H232.066V278.198H422.853V166.206L422.975 164.821Z" fill="#F2F2F2"/>
<path d="M368.82 100.05L312.158 166.54V267.32H414.006V153.892L368.82 100.05Z" fill="#E6E6E6"/>
<path d="M382.687 222.466H361.887V240.868H382.687V222.466Z" fill="#3F3D56"/>
<path d="M382.687 190.615H361.887V208.725H382.687V190.615Z" fill="#3F3D56"/>
<path d="M382.687 222.466H361.887V240.868H382.687V222.466Z" fill="white"/>
<path d="M382.687 190.615H361.887V208.725H382.687V190.615Z" fill="white"/>
<path d="M290.25 217.583H269.45V235.985H290.25V217.583Z" fill="white"/>
<path d="M290.25 185.732H269.45V203.842H290.25V185.732Z" fill="white"/>
<path d="M259.976 56.6037H235.057V142.939H259.976V56.6037Z" fill="#F2F2F2"/>
<path d="M276.432 126.698L215.826 54.5315L94.1717 55.6443L20.3743 127.591L21.8651 128.55H21.3327V278.198H276.269V128.55L276.432 126.698Z" fill="#F2F2F2"/>
<path d="M215.889 54.685L140.175 143.533V278.198H276.269V126.631L215.889 54.685Z" fill="#E6E6E6"/>
<path d="M222.598 203.727H194.804V228.316H222.598V203.727Z" fill="#3F3D56"/>
<path d="M222.598 161.166H194.804V185.365H222.598V161.166Z" fill="#3F3D56"/>
<path d="M222.598 203.727H194.804V228.316H222.598V203.727Z" fill="white"/>
<path d="M222.598 161.166H194.804V185.365H222.598V161.166Z" fill="white"/>
<path d="M99.0805 197.202H71.2866V221.791H99.0805V197.202Z" fill="white"/>
<path d="M99.0805 154.641H71.2866V178.84H99.0805V154.641Z" fill="white"/>
<path d="M93.906 254.887C103.843 254.887 111.899 238.435 111.899 218.141C111.899 197.847 103.843 181.395 93.906 181.395C83.9689 181.395 75.9133 197.847 75.9133 218.141C75.9133 238.435 83.9689 254.887 93.906 254.887Z" fill="#3F3D56"/>
<path d="M95.5676 278.288C88.3613 235.012 95.495 191.893 95.5679 191.463L96.9697 191.7C96.8971 192.128 89.8044 235.021 96.97 278.055L95.5676 278.288Z" fill="#FD0157"/>
<path d="M109.747 210.239L93.4766 218.95L94.1473 220.205L110.418 211.494L109.747 210.239Z" fill="#FD0157"/>
<path d="M76.9756 214.603L76.3046 215.858L92.5729 224.573L93.244 223.319L76.9756 214.603Z" fill="#FD0157"/>
<path d="M50.6748 233.341C70.1106 233.341 85.8665 201.163 85.8665 161.47C85.8665 121.777 70.1106 89.5991 50.6748 89.5991C31.2389 89.5991 15.483 121.777 15.483 161.47C15.483 201.163 31.2389 233.341 50.6748 233.341Z" fill="#FD0157"/>
<path d="M54.5945 279C40.5187 194.469 54.4526 110.246 54.5949 109.405L55.9966 109.642C55.8546 110.481 41.9617 194.478 55.997 278.766L54.5945 279Z" fill="#3F3D56"/>
<path d="M81.9786 146.615L50.155 163.653L50.8257 164.908L82.6493 147.87L81.9786 146.615Z" fill="#3F3D56"/>
<path d="M17.2404 155.15L16.5693 156.405L48.3882 173.451L49.0593 172.196L17.2404 155.15Z" fill="#3F3D56"/>
<path d="M134.024 216.563C160.62 216.563 182.181 172.53 182.181 118.213C182.181 63.8955 160.62 19.8628 134.024 19.8628C107.427 19.8628 85.8665 63.8955 85.8665 118.213C85.8665 172.53 107.427 216.563 134.024 216.563Z" fill="#FD0157"/>
<path d="M139.646 279C120.392 163.369 139.452 48.1594 139.646 47.0093L141.048 47.2469C140.854 48.3949 121.835 163.378 141.049 278.766L139.646 279Z" fill="#3F3D56"/>
<path d="M176.984 98.1157L133.436 121.43L134.107 122.685L177.655 99.3707L176.984 98.1157Z" fill="#3F3D56"/>
<path d="M88.1476 109.795L87.4766 111.05L131.018 134.376L131.689 133.121L88.1476 109.795Z" fill="#3F3D56"/>
<path d="M538.577 254.887C548.514 254.887 556.57 238.435 556.57 218.141C556.57 197.847 548.514 181.395 538.577 181.395C528.64 181.395 520.584 197.847 520.584 218.141C520.584 238.435 528.64 254.887 538.577 254.887Z" fill="#3F3D56"/>
<path d="M536.915 278.288C544.122 235.012 536.988 191.893 536.915 191.463L535.513 191.7C535.586 192.128 542.679 235.021 535.513 278.055L536.915 278.288Z" fill="#FD0157"/>
<path d="M522.736 210.239L522.065 211.494L538.336 220.205L539.006 218.95L522.736 210.239Z" fill="#FD0157"/>
<path d="M555.507 214.603L539.239 223.318L539.91 224.573L556.178 215.858L555.507 214.603Z" fill="#FD0157"/>
<path d="M581.808 233.341C601.244 233.341 617 201.163 617 161.47C617 121.777 601.244 89.5991 581.808 89.5991C562.372 89.5991 546.617 121.777 546.617 161.47C546.617 201.163 562.372 233.341 581.808 233.341Z" fill="#FD0157"/>
<path d="M577.888 279C591.964 194.469 578.03 110.246 577.888 109.405L576.486 109.642C576.628 110.481 590.521 194.478 576.486 278.766L577.888 279Z" fill="#3F3D56"/>
<path d="M550.504 146.615L549.834 147.87L581.657 164.908L582.328 163.653L550.504 146.615Z" fill="#3F3D56"/>
<path d="M615.243 155.15L583.424 172.196L584.095 173.451L615.914 156.405L615.243 155.15Z" fill="#3F3D56"/>
<path d="M498.459 216.563C525.056 216.563 546.617 172.53 546.617 118.213C546.617 63.8955 525.056 19.8628 498.459 19.8628C471.863 19.8628 450.302 63.8955 450.302 118.213C450.302 172.53 471.863 216.563 498.459 216.563Z" fill="#FD0157"/>
<path d="M492.837 279C512.092 163.369 493.031 48.1594 492.837 47.0093L491.435 47.2469C491.629 48.3949 510.648 163.378 491.434 278.766L492.837 279Z" fill="#3F3D56"/>
<path d="M455.499 98.1158L454.828 99.3708L498.376 122.685L499.047 121.43L455.499 98.1158Z" fill="#3F3D56"/>
<path d="M544.335 109.795L500.794 133.121L501.465 134.376L545.006 111.05L544.335 109.795Z" fill="#3F3D56"/>
<path d="M364.566 62.7961L370.258 58.2394C365.836 57.751 364.019 60.1649 363.275 62.0754C359.821 60.6396 356.06 62.5213 356.06 62.5213L367.449 66.6597C366.874 65.1236 365.874 63.7834 364.566 62.7961Z" fill="#3F3D56"/>
<path d="M225.443 22.5683L231.135 18.0116C226.713 17.5233 224.896 19.9371 224.153 21.8477C220.698 20.4119 216.937 22.2936 216.937 22.2936L228.326 26.4319C227.752 24.8959 226.752 23.5556 225.443 22.5683Z" fill="#3F3D56"/>
<path d="M452.367 4.62056L458.059 0.0638147C453.638 -0.424488 451.821 1.98934 451.077 3.89991C447.623 2.46409 443.862 4.3458 443.862 4.3458L455.251 8.48412C454.676 6.94811 453.676 5.60787 452.367 4.62056Z" fill="#3F3D56"/>
<path d="M463.86 270.487C462.347 270.486 460.86 270.885 459.55 271.644C458.22 270.44 456.569 269.648 454.798 269.365C453.027 269.082 451.212 269.319 449.573 270.049C447.934 270.778 446.542 271.968 445.566 273.474C444.59 274.98 444.071 276.737 444.074 278.532H472.485C472.33 276.348 471.354 274.304 469.754 272.811C468.154 271.318 466.048 270.487 463.86 270.487Z" fill="#3F3D56"/>
<path d="M175.103 270.487C173.59 270.486 172.104 270.885 170.794 271.644C169.464 270.44 167.813 269.648 166.042 269.365C164.271 269.082 162.456 269.319 160.817 270.049C159.178 270.778 157.786 271.968 156.81 273.474C155.833 274.98 155.315 276.737 155.317 278.532H183.729C183.574 276.348 182.598 274.304 180.997 272.811C179.397 271.318 177.291 270.487 175.103 270.487Z" fill="#3F3D56"/>
<path d="M322.882 270.487C321.369 270.486 319.883 270.885 318.573 271.644C317.243 270.44 315.592 269.648 313.821 269.365C312.05 269.082 310.235 269.319 308.596 270.049C306.957 270.778 305.565 271.968 304.589 273.474C303.612 274.98 303.094 276.737 303.096 278.532H331.508C331.353 276.348 330.377 274.304 328.777 272.811C327.176 271.318 325.07 270.487 322.882 270.487Z" fill="#3F3D56"/>
<path d="M291.699 250.172H209.729V252.818H222.513V277.961H225.157V252.818H274.949V277.961H277.593V252.818H291.699V250.172Z" fill="#3F3D56"/>
<path d="M291.861 242.254H209.891V244.901H291.861V242.254Z" fill="#3F3D56"/>
<path d="M291.861 235.638H209.891V238.284H291.861V235.638Z" fill="#3F3D56"/>
<path d="M291.861 229.021H209.891V231.668H291.861V229.021Z" fill="#3F3D56"/>
<path d="M419.692 250.172H337.722V252.818H350.506V277.961H353.15V252.818H402.942V277.961H405.586V252.818H419.692V250.172Z" fill="#3F3D56"/>
<path d="M419.853 242.254H337.883V244.901H419.853V242.254Z" fill="#3F3D56"/>
<path d="M419.853 235.638H337.883V238.284H419.853V235.638Z" fill="#3F3D56"/>
<path d="M419.853 229.021H337.883V231.668H419.853V229.021Z" fill="#3F3D56"/>
</g>
<defs>
<clipPath id="clip0">
<rect width="617" height="279" fill="white"/>
</clipPath>
</defs>
</svg>
