<svg width="674" height="736" viewBox="0 0 674 736" fill="none" xmlns="http://www.w3.org/2000/svg">
<path opacity="0.1" d="M329.506 718.878C492.182 718.878 624.056 714.399 624.056 708.875C624.056 703.351 492.182 698.872 329.506 698.872C166.831 698.872 34.9562 703.351 34.9562 708.875C34.9562 714.399 166.831 718.878 329.506 718.878Z" fill="#FD0157"/>
<path d="M419.125 707.204H409.436L338.562 341.465L329.473 707.204H319.183L307.67 342.076L238.609 707.204H227.707L274.647 331.287L276.176 319.068L368.253 308.771L371.115 331.287L419.125 707.204Z" fill="#464353"/>
<path d="M223.534 235.454H164.928V271.785H223.534V235.454Z" fill="#464353"/>
<path d="M504.976 219.566L540.412 205.261H548.179C549.312 205.261 550.399 205.711 551.2 206.512C552.001 207.312 552.451 208.398 552.451 209.531V309.295C552.451 310.427 552.001 311.513 551.2 312.314C550.399 313.115 549.312 313.564 548.179 313.564H540.412L504.976 298.812V219.566Z" fill="#464353"/>
<path d="M504.976 224.109H432.518V294.269H504.976V224.109Z" fill="#464353"/>
<path d="M353.386 92.3276H306.741V100.801H353.386V92.3276Z" fill="#514E7F"/>
<path d="M384.814 103.302H253.52V199.124H384.814V103.302Z" fill="#514E7F"/>
<path opacity="0.1" d="M384.814 187.778H253.52V199.135H384.814V187.778Z" fill="black"/>
<path opacity="0.1" d="M434.331 224.109H431.393V294.269H434.331V224.109Z" fill="black"/>
<path opacity="0.1" d="M223.534 235.454H203.544V271.785H223.534V235.454Z" fill="black"/>
<path opacity="0.1" d="M371.115 331.287H274.647L276.176 319.068L368.253 308.771L371.115 331.287Z" fill="black"/>
<path d="M420.818 189.591H217.045C210.59 189.591 205.357 194.822 205.357 201.275V317.779C205.357 324.232 210.59 329.464 217.045 329.464H420.818C427.274 329.464 432.507 324.232 432.507 317.779V201.275C432.507 194.822 427.274 189.591 420.818 189.591Z" fill="#514E7F"/>
<path d="M504.287 219.566H504.976V298.812H504.287C502.784 298.812 501.342 298.215 500.278 297.152C499.215 296.089 498.618 294.647 498.618 293.144V225.233C498.618 223.73 499.215 222.289 500.278 221.226C501.342 220.163 502.784 219.566 504.287 219.566Z" fill="#514E7F"/>
<path d="M540.413 205.294H547.764C549.007 205.294 550.199 205.787 551.078 206.666C551.957 207.544 552.451 208.736 552.451 209.978V308.934C552.451 310.177 551.957 311.368 551.078 312.247C550.199 313.125 549.007 313.619 547.764 313.619H540.413V205.294Z" fill="#514E7F"/>
<path opacity="0.1" d="M175.382 235.454H164.928V271.785H175.382V235.454Z" fill="black"/>
<path d="M165.693 224.109H160.984C156.641 224.109 153.119 227.629 153.119 231.971V278.009C153.119 282.351 156.641 285.872 160.984 285.872H165.693C170.036 285.872 173.558 282.351 173.558 278.009V231.971C173.558 227.629 170.036 224.109 165.693 224.109Z" fill="#514E7F"/>
<path d="M253.52 168.701C289.652 168.701 318.943 139.421 318.943 103.302C318.943 67.1831 289.652 37.9029 253.52 37.9029C217.388 37.9029 188.097 67.1831 188.097 103.302C188.097 139.421 217.388 168.701 253.52 168.701Z" fill="#464353"/>
<path d="M253.52 152.354C280.621 152.354 302.59 130.393 302.59 103.302C302.59 76.2113 280.621 54.25 253.52 54.25C226.42 54.25 204.45 76.2113 204.45 103.302C204.45 130.393 226.42 152.354 253.52 152.354Z" fill="#FD0157"/>
<path d="M374.818 152.354C401.165 152.354 422.523 131.004 422.523 104.667C422.523 78.3302 401.165 56.9799 374.818 56.9799C348.472 56.9799 327.114 78.3302 327.114 104.667C327.114 131.004 348.472 152.354 374.818 152.354Z" fill="#464353"/>
<path d="M374.818 140.43C394.577 140.43 410.594 124.418 410.594 104.667C410.594 84.9159 394.577 68.9044 374.818 68.9044C355.06 68.9044 339.043 84.9159 339.043 104.667C339.043 124.418 355.06 140.43 374.818 140.43Z" fill="#FD0157"/>
<path d="M371.115 216.683C374.584 216.683 377.396 213.872 377.396 210.404C377.396 206.937 374.584 204.125 371.115 204.125C367.646 204.125 364.834 206.937 364.834 210.404C364.834 213.872 367.646 216.683 371.115 216.683Z" fill="#FD0157"/>
<path opacity="0.5" d="M391.095 216.683C394.564 216.683 397.376 213.872 397.376 210.404C397.376 206.937 394.564 204.125 391.095 204.125C387.626 204.125 384.814 206.937 384.814 210.404C384.814 213.872 387.626 216.683 391.095 216.683Z" fill="#FD0157"/>
<path opacity="0.1" d="M212.468 198.786C212.468 198.786 200.452 212.916 202.637 220.625L212.468 198.786Z" fill="black"/>
<path opacity="0.1" d="M243.842 205.709C243.842 205.709 225.806 221.717 228.45 223.541L243.842 205.709Z" fill="black"/>
<path opacity="0.1" d="M255.071 225.375C255.071 225.375 253.247 235.902 256.164 236.295L255.071 225.375Z" fill="black"/>
</svg>
